<svg width="18" height="18" viewBox="0 0 18 18" fill="none" xmlns="http://www.w3.org/2000/svg">
<path d="M10.9807 8.9988L17.0217 2.9691C17.2862 2.70444 17.4349 2.34547 17.4349 1.97118C17.4349 1.59689 17.2862 1.23792 17.0217 0.973259C16.7571 0.708594 16.3983 0.559906 16.0242 0.559906C15.6501 0.559906 15.2913 0.708594 15.0267 0.973259L8.99976 7.01701L2.97277 0.973259C2.70822 0.708594 2.34942 0.559906 1.97529 0.559906C1.60117 0.559906 1.24237 0.708594 0.977821 0.973259C0.713274 1.23792 0.564653 1.59689 0.564653 1.97118C0.564653 2.34547 0.713274 2.70444 0.977821 2.9691L7.01886 8.9988L0.977821 15.0285C0.846142 15.1592 0.741627 15.3146 0.670302 15.4859C0.598978 15.6572 0.562256 15.8409 0.562256 16.0264C0.562256 16.212 0.598978 16.3957 0.670302 16.567C0.741627 16.7382 0.846142 16.8937 0.977821 17.0243C1.10842 17.1561 1.26381 17.2606 1.43501 17.332C1.6062 17.4034 1.78983 17.4401 1.97529 17.4401C2.16076 17.4401 2.34438 17.4034 2.51558 17.332C2.68678 17.2606 2.84216 17.1561 2.97277 17.0243L8.99976 10.9806L15.0267 17.0243C15.1573 17.1561 15.3127 17.2606 15.4839 17.332C15.6551 17.4034 15.8388 17.4401 16.0242 17.4401C16.2097 17.4401 16.3933 17.4034 16.5645 17.332C16.7357 17.2606 16.8911 17.1561 17.0217 17.0243C17.1534 16.8937 17.2579 16.7382 17.3292 16.567C17.4005 16.3957 17.4373 16.212 17.4373 16.0264C17.4373 15.8409 17.4005 15.6572 17.3292 15.4859C17.2579 15.3146 17.1534 15.1592 17.0217 15.0285L10.9807 8.9988Z" fill="white"/>
</svg>
