<svg width="24" height="26" viewBox="0 0 24 26" fill="none" xmlns="http://www.w3.org/2000/svg">
<path d="M20.1376 8.3125C20.7626 8.3125 21.2626 7.8125 21.2626 7.1875V1.375C21.2626 0.75 20.7626 0.25 20.1376 0.25C19.5126 0.25 19.0126 0.75 19.0126 1.375V7.1875C19.0126 7.8 19.5251 8.3125 20.1376 8.3125Z" fill="white"/>
<path d="M12.0001 17.6875C11.3751 17.6875 10.8751 18.1875 10.8751 18.8125V24.625C10.8751 25.25 11.3751 25.75 12.0001 25.75C12.6251 25.75 13.1251 25.25 13.1251 24.625V18.8125C13.1251 18.2 12.6251 17.6875 12.0001 17.6875Z" fill="white"/>
<path d="M3.8626 8.3125C4.4876 8.3125 4.9876 7.8125 4.9876 7.1875V1.375C4.9876 0.75 4.4876 0.25 3.8626 0.25C3.2376 0.25 2.7376 0.75 2.7376 1.375V7.1875C2.7376 7.8 3.2376 8.3125 3.8626 8.3125Z" fill="white"/>
<path d="M6.1876 10.7125H1.5376C0.912598 10.7125 0.412598 11.2125 0.412598 11.8375C0.412598 12.4625 0.912598 12.9625 1.5376 12.9625H2.7376V24.625C2.7376 25.25 3.2376 25.75 3.8626 25.75C4.4876 25.75 4.9876 25.25 4.9876 24.625V12.9625H6.1876C6.8126 12.9625 7.3126 12.4625 7.3126 11.8375C7.3126 11.2125 6.8001 10.7125 6.1876 10.7125Z" fill="white"/>
<path d="M22.4626 10.7125H17.8126C17.1876 10.7125 16.6876 11.2125 16.6876 11.8375C16.6876 12.4625 17.1876 12.9625 17.8126 12.9625H19.0126V24.625C19.0126 25.25 19.5126 25.75 20.1376 25.75C20.7626 25.75 21.2626 25.25 21.2626 24.625V12.9625H22.4626C23.0876 12.9625 23.5876 12.4625 23.5876 11.8375C23.5876 11.2125 23.0876 10.7125 22.4626 10.7125Z" fill="white"/>
<path d="M14.3251 13.0375H13.1251V1.375C13.1251 0.75 12.6251 0.25 12.0001 0.25C11.3751 0.25 10.8751 0.75 10.8751 1.375V13.0375H9.6751C9.0501 13.0375 8.5501 13.5375 8.5501 14.1625C8.5501 14.7875 9.0501 15.2875 9.6751 15.2875H14.3251C14.9501 15.2875 15.4501 14.7875 15.4501 14.1625C15.4501 13.5375 14.9501 13.0375 14.3251 13.0375Z" fill="white"/>
</svg>
