<svg width="83" height="83" viewBox="0 0 83 83" fill="none" xmlns="http://www.w3.org/2000/svg">
<rect width="83" height="83" rx="10" fill="white"/>
<path d="M54.5 49.3334L58.6667 53.5L54.5 57.6667" stroke="black" stroke-width="4" stroke-linecap="round" stroke-linejoin="round"/>
<path d="M28.6667 31C29.5508 31 30.3986 30.6489 31.0237 30.0237C31.6489 29.3986 32 28.5508 32 27.6667C32 26.7827 31.6489 25.9348 31.0237 25.3097C30.3986 24.6846 29.5508 24.3334 28.6667 24.3334C27.7827 24.3334 26.9348 24.6846 26.3097 25.3097C25.6846 25.9348 25.3334 26.7827 25.3334 27.6667C25.3334 28.5508 25.6846 29.3986 26.3097 30.0237C26.9348 30.6489 27.7827 31 28.6667 31V31Z" stroke="black" stroke-width="4" stroke-linejoin="round"/>
<path d="M32 27.6667H38.6667C39.5507 27.6667 40.3986 28.0179 41.0237 28.6431C41.6488 29.2682 42 30.116 42 31.0001V50.1667C42 51.0508 42.3512 51.8986 42.9763 52.5238C43.6014 53.1489 44.4493 53.5001 45.3333 53.5001H58.6667" stroke="black" stroke-width="4" stroke-linecap="round" stroke-linejoin="round"/>
</svg>
