<svg width="20" height="20" viewBox="0 0 20 20" fill="none" xmlns="http://www.w3.org/2000/svg">
<path d="M0.399902 10C0.399902 7.45392 1.41133 5.01213 3.21168 3.21178C5.01203 1.41143 7.45382 0.400002 9.9999 0.400002C12.546 0.400002 14.9878 1.41143 16.7881 3.21178C18.5885 5.01213 19.5999 7.45392 19.5999 10C19.5999 12.5461 18.5885 14.9879 16.7881 16.7882C14.9878 18.5886 12.546 19.6 9.9999 19.6C7.45382 19.6 5.01203 18.5886 3.21168 16.7882C1.41133 14.9879 0.399902 12.5461 0.399902 10ZM12.3495 5.44C12.3839 5.36739 12.4034 5.28862 12.4067 5.20834C12.4101 5.12807 12.3973 5.04793 12.3692 4.97269C12.341 4.89745 12.298 4.82863 12.2427 4.77032C12.1874 4.71201 12.121 4.6654 12.0474 4.63325C11.9738 4.60109 11.8944 4.58406 11.8141 4.58315C11.7337 4.58223 11.654 4.59747 11.5797 4.62794C11.5054 4.65842 11.4379 4.70351 11.3813 4.76055C11.3247 4.81759 11.2802 4.88542 11.2503 4.96L7.0503 14.56C7.0159 14.6326 6.99643 14.7114 6.99306 14.7917C6.98968 14.8719 7.00245 14.9521 7.03063 15.0273C7.05881 15.1026 7.10181 15.1714 7.15708 15.2297C7.21236 15.288 7.27878 15.3346 7.35241 15.3668C7.42604 15.3989 7.50538 15.4159 7.58572 15.4169C7.66606 15.4178 7.74576 15.4025 7.8201 15.3721C7.89445 15.3416 7.96191 15.2965 8.01849 15.2394C8.07508 15.1824 8.11963 15.1146 8.1495 15.04L12.3495 5.44ZM6.2247 7.1752C6.16897 7.11933 6.10276 7.07499 6.02986 7.04475C5.95697 7.0145 5.87882 6.99893 5.7999 6.99893C5.72098 6.99893 5.64284 7.0145 5.56994 7.04475C5.49705 7.07499 5.43084 7.11933 5.3751 7.1752L2.9751 9.5752C2.91923 9.63094 2.87489 9.69715 2.84465 9.77004C2.8144 9.84294 2.79883 9.92108 2.79883 10C2.79883 10.0789 2.8144 10.1571 2.84465 10.23C2.87489 10.3029 2.91923 10.3691 2.9751 10.4248L5.3751 12.8248C5.48777 12.9375 5.64057 13.0008 5.7999 13.0008C5.95923 13.0008 6.11204 12.9375 6.2247 12.8248C6.33737 12.7121 6.40066 12.5593 6.40066 12.4C6.40066 12.2407 6.33737 12.0879 6.2247 11.9752L4.2483 10L6.2247 8.0248C6.28058 7.96907 6.32491 7.90285 6.35516 7.82996C6.38541 7.75707 6.40097 7.67892 6.40097 7.6C6.40097 7.52108 6.38541 7.44293 6.35516 7.37004C6.32491 7.29715 6.28058 7.23094 6.2247 7.1752ZM13.7751 8.0248L15.7515 10L13.7751 11.9752C13.6624 12.0879 13.5991 12.2407 13.5991 12.4C13.5991 12.5593 13.6624 12.7121 13.7751 12.8248C13.8878 12.9375 14.0406 13.0008 14.1999 13.0008C14.3592 13.0008 14.512 12.9375 14.6247 12.8248L17.0247 10.4248C17.0806 10.3691 17.1249 10.3029 17.1552 10.23C17.1854 10.1571 17.201 10.0789 17.201 10C17.201 9.92108 17.1854 9.84294 17.1552 9.77004C17.1249 9.69715 17.0806 9.63094 17.0247 9.5752L14.6247 7.1752C14.512 7.06254 14.3592 6.99924 14.1999 6.99924C14.0406 6.99924 13.8878 7.06254 13.7751 7.1752C13.6624 7.28787 13.5991 7.44067 13.5991 7.6C13.5991 7.75933 13.6624 7.91214 13.7751 8.0248Z" fill="black"/>
</svg>
