<svg width="81" height="15" viewBox="0 0 81 15" fill="none" xmlns="http://www.w3.org/2000/svg">
<path d="M16.04 4.7C15.34 3.98 14.44 3.6 13.34 3.6C12.56 3.6 11.86 3.76 11.26 4.06C10.66 4.36 10.16 4.78 9.8 5.34C9.22 4.18 8.2 3.6 6.74 3.6C6.02 3.62 5.42 3.74 4.94 3.98C4.46 4.22 4.04 4.56 3.7 5L3.44 3.72H0.98V14.02H3.8V8.4C3.8 7.64 3.98 7.04 4.34 6.6C4.7 6.16 5.2 5.92 5.82 5.92C7.02 5.92 7.62 6.7 7.62 8.26V14.02H10.44V8.38C10.44 7.62 10.62 7.02 11 6.58C11.36 6.14 11.86 5.92 12.48 5.92C13.66 5.92 14.26 6.7 14.26 8.26V14.02H17.08V8.36C17.08 6.66 16.72 5.44 16.04 4.7ZM29.1211 11.62H28.8011C28.5611 11.62 28.4011 11.58 28.3011 11.48C28.1811 11.4 28.1411 11.22 28.1411 10.96V7.34C28.1411 6.14 27.7411 5.2 26.9411 4.56C26.1411 3.92 25.0211 3.6 23.5811 3.6C22.1811 3.6 21.0811 3.9 20.2411 4.48C19.4011 5.06 18.9211 5.88 18.8411 6.92H21.5611C21.6211 6.54 21.8211 6.24 22.1611 6C22.4811 5.78 22.9211 5.66 23.4411 5.66C24.0211 5.66 24.4811 5.8 24.8411 6.08C25.1811 6.36 25.3611 6.72 25.3611 7.18V7.68H23.3211C21.7811 7.68 20.6011 7.98 19.8011 8.58C19.0011 9.18 18.6011 10.02 18.6011 11.1C18.6011 12.06 18.9411 12.82 19.6411 13.34C20.3411 13.86 21.2611 14.12 22.4211 14.12C23.1811 14.12 23.8411 13.98 24.4011 13.66C24.9411 13.36 25.4011 12.92 25.7811 12.32C25.7411 13.44 26.3811 14 27.6811 14H29.1211V11.62ZM25.3611 9.56V9.76C25.3411 10.48 25.1211 11.04 24.7011 11.46C24.2611 11.88 23.6811 12.08 22.9611 12.08C22.4811 12.08 22.1211 11.98 21.8411 11.76C21.5611 11.56 21.4411 11.26 21.4411 10.9C21.4411 10.48 21.6011 10.16 21.9211 9.92C22.2411 9.68 22.7011 9.56 23.3011 9.56H25.3611ZM38.642 13.06C39.522 12.34 40.042 11.36 40.242 10.1H37.342C37.222 10.64 36.982 11.06 36.622 11.36C36.262 11.68 35.802 11.82 35.262 11.82C34.522 11.82 33.942 11.56 33.502 11C33.062 10.46 32.842 9.74 32.842 8.86C32.842 7.98 33.062 7.28 33.502 6.72C33.942 6.18 34.522 5.9 35.262 5.9C35.782 5.9 36.242 6.06 36.602 6.36C36.962 6.66 37.202 7.06 37.322 7.56H40.242C40.042 6.32 39.502 5.36 38.642 4.66C37.762 3.96 36.642 3.6 35.282 3.6C34.202 3.6 33.262 3.82 32.462 4.26C31.662 4.7 31.042 5.3 30.602 6.1C30.162 6.9 29.962 7.82 29.962 8.86C29.962 9.9 30.162 10.82 30.602 11.62C31.042 12.42 31.662 13.04 32.462 13.48C33.262 13.92 34.182 14.12 35.262 14.12C36.642 14.12 37.762 13.78 38.642 13.06ZM43.9416 13.48C44.7616 13.92 45.7216 14.12 46.8016 14.12C47.8816 14.12 48.8216 13.92 49.6416 13.48C50.4616 13.04 51.1016 12.44 51.5416 11.64C51.9816 10.84 52.2216 9.92 52.2216 8.86C52.2216 7.82 51.9816 6.9 51.5416 6.1C51.1016 5.3 50.4616 4.7 49.6416 4.26C48.8216 3.82 47.8816 3.6 46.8016 3.6C45.7216 3.6 44.7616 3.82 43.9416 4.26C43.1216 4.7 42.4816 5.3 42.0416 6.1C41.6016 6.9 41.3816 7.82 41.3816 8.86C41.3816 9.9 41.6016 10.82 42.0416 11.62C42.4816 12.42 43.1216 13.04 43.9416 13.48ZM48.6616 11C48.2016 11.56 47.5816 11.82 46.8016 11.82C46.0216 11.82 45.4016 11.56 44.9416 11C44.4816 10.46 44.2616 9.74 44.2616 8.86C44.2616 7.98 44.4816 7.28 44.9416 6.72C45.4016 6.18 46.0216 5.9 46.8016 5.9C47.5816 5.9 48.2016 6.18 48.6616 6.72C49.1216 7.28 49.3616 7.98 49.3616 8.86C49.3616 9.74 49.1216 10.46 48.6616 11ZM64.2037 -9.53674e-07H61.3837V5C60.6437 4.08 59.6037 3.6 58.2837 3.6C57.3637 3.6 56.5437 3.82 55.8237 4.26C55.1037 4.7 54.5237 5.3 54.1237 6.1C53.7237 6.9 53.5237 7.8 53.5237 8.84C53.5237 9.9 53.7237 10.82 54.1237 11.62C54.5237 12.42 55.1037 13.04 55.8237 13.48C56.5437 13.92 57.3437 14.12 58.2637 14.12C59.6037 14.12 60.6637 13.62 61.4637 12.58L61.7437 14H64.2037V-9.53674e-07ZM60.7437 11.02C60.2837 11.56 59.6837 11.82 58.9237 11.82C58.1637 11.82 57.5437 11.56 57.0837 11C56.6237 10.46 56.4037 9.74 56.4037 8.86C56.4037 7.98 56.6237 7.28 57.0837 6.72C57.5437 6.18 58.1637 5.9 58.9237 5.9C59.6837 5.9 60.2837 6.18 60.7437 6.72C61.1837 7.28 61.4237 8 61.4237 8.88C61.4237 9.76 61.1837 10.48 60.7437 11.02ZM66.5598 6.1C66.1198 6.9 65.9198 7.82 65.9198 8.88C65.9198 9.94 66.1398 10.86 66.5798 11.66C67.0198 12.46 67.6598 13.06 68.4998 13.48C69.3398 13.92 70.3198 14.12 71.4798 14.12C72.3598 14.12 73.1398 13.98 73.8198 13.66C74.4998 13.34 75.0398 12.92 75.4598 12.36C75.8598 11.82 76.1198 11.2 76.2398 10.52H73.4598C73.3398 11 73.0798 11.38 72.6998 11.62C72.3198 11.86 71.8398 11.98 71.2798 11.98C70.5598 11.98 69.9798 11.78 69.5798 11.34C69.1598 10.92 68.9198 10.34 68.8598 9.58V9.5H76.3198C76.3598 9.22 76.3998 8.9 76.3998 8.54C76.3798 7.54 76.1398 6.68 75.6998 5.94C75.2598 5.2 74.6398 4.62 73.8398 4.22C73.0398 3.82 72.1398 3.6 71.0998 3.6C70.0598 3.6 69.1598 3.82 68.3798 4.26C67.5998 4.7 66.9998 5.3 66.5598 6.1ZM73.5798 7.66H68.9198C68.9998 7.06 69.2398 6.6 69.6598 6.24C70.0798 5.88 70.5998 5.7 71.2198 5.7C71.8598 5.7 72.3798 5.88 72.7998 6.22C73.2198 6.56 73.4798 7.04 73.5798 7.66ZM77.8045 11.26C77.4845 11.58 77.3245 11.98 77.3245 12.46C77.3245 12.94 77.4845 13.34 77.8045 13.66C78.1245 13.98 78.5245 14.12 79.0245 14.12C79.5045 14.12 79.9045 13.98 80.2245 13.66C80.5445 13.34 80.7245 12.94 80.7245 12.46C80.7245 11.98 80.5445 11.58 80.2245 11.26C79.9045 10.94 79.5045 10.78 79.0245 10.78C78.5245 10.78 78.1245 10.94 77.8045 11.26Z" fill="black"/>
</svg>
